<svg width="32" height="27" viewBox="0 0 32 27" fill="none" xmlns="http://www.w3.org/2000/svg">
<path d="M29.8154 7.45245L27.8167 10.4587C28.7806 12.3812 29.2525 14.5128 29.1901 16.6625C29.1277 18.8122 28.5329 20.9128 27.4592 22.7762H4.93666C3.54106 20.3551 2.96277 17.5488 3.28751 14.7732C3.61226 11.9976 4.82277 9.40054 6.73956 7.36702C8.65636 5.3335 11.1774 3.97177 13.929 3.4837C16.6806 2.99564 19.5162 3.40723 22.0154 4.65745L25.0217 2.6587C21.9609 0.696049 18.3304 -0.183419 14.7109 0.160969C11.0913 0.505358 7.69176 2.05371 5.05609 4.55834C2.42042 7.06298 0.700875 10.3792 0.172515 13.9765C-0.355844 17.5739 0.337506 21.2445 2.14166 24.4012C2.42524 24.8924 2.83243 25.3008 3.32276 25.5859C3.81309 25.871 4.36949 26.0228 4.93666 26.0262H27.4429C28.0156 26.0285 28.5787 25.8794 29.0752 25.594C29.5718 25.3087 29.9841 24.8972 30.2704 24.4012C31.7676 21.8076 32.519 18.8506 32.4416 15.8569C32.3642 12.8631 31.461 9.94897 29.8317 7.4362L29.8154 7.45245ZM13.9067 18.5674C14.2085 18.8696 14.5669 19.1093 14.9615 19.2729C15.356 19.4364 15.7789 19.5206 16.206 19.5206C16.6331 19.5206 17.056 19.4364 17.4506 19.2729C17.8451 19.1093 18.2036 18.8696 18.5054 18.5674L27.7029 4.7712L13.9067 13.9687C13.6045 14.2705 13.3648 14.629 13.2012 15.0235C13.0377 15.4181 12.9535 15.841 12.9535 16.2681C12.9535 16.6952 13.0377 17.1181 13.2012 17.5126C13.3648 17.9072 13.6045 18.2656 13.9067 18.5674Z" fill="#FF7B47"/>
</svg>
