<svg width="32" height="33" viewBox="0 0 32 33" fill="none" xmlns="http://www.w3.org/2000/svg">
<path fill-rule="evenodd" clip-rule="evenodd" d="M18.2367 8.8594C17.7729 9.18097 17.2497 9.40694 16.6976 9.52413C16.1456 9.64131 15.5757 9.64738 15.0212 9.54196C14.4668 9.43654 13.9389 9.22175 13.4684 8.91012C12.9979 8.59849 12.5941 8.19627 12.2807 7.72693C11.9673 7.25759 11.7505 6.73053 11.643 6.1765C11.5354 5.62247 11.5393 5.05257 11.6544 4.50007C11.7695 3.94756 11.9935 3.42351 12.3133 2.95849C12.6331 2.49348 13.0423 2.09682 13.517 1.79165C14.4544 1.17255 15.5986 0.949704 16.6998 1.17182C17.8009 1.39394 18.7693 2.04296 19.3933 2.977C20.0173 3.91104 20.2462 5.05414 20.0298 6.15642C19.8135 7.2587 19.1696 8.23051 18.2388 8.8594H18.2367ZM17.0573 3.55965C16.8259 3.39317 16.5633 3.27495 16.2853 3.21204C16.0072 3.14913 15.7193 3.14282 15.4388 3.19347C15.1583 3.24412 14.8908 3.3507 14.6523 3.50687C14.4138 3.66303 14.2091 3.86559 14.0505 4.10249C13.8919 4.33938 13.7826 4.60577 13.7291 4.88578C13.6756 5.1658 13.679 5.45372 13.739 5.7324C13.7991 6.01108 13.9146 6.27483 14.0788 6.50794C14.2429 6.74104 14.4522 6.93875 14.6943 7.08928C15.162 7.37341 15.7214 7.46614 16.2558 7.34812C16.7902 7.23011 17.2585 6.91047 17.563 6.45578C17.8676 6.00109 17.985 5.44641 17.8908 4.9073C17.7966 4.36819 17.498 3.88622 17.0573 3.56178V3.55965ZM22.6036 3.6234C23.2164 3.21116 23.9539 3.02551 24.6889 3.09843C25.4239 3.17135 26.1105 3.49827 26.6304 4.0229C27.0009 4.39637 27.2741 4.85504 27.426 5.35868C27.578 5.86232 27.604 6.39555 27.5018 6.9116C27.3997 7.42764 27.1724 7.91074 26.8401 8.31851C26.5077 8.72628 26.0804 9.04626 25.5956 9.2504C25.0133 9.49387 24.3715 9.558 23.7526 9.43458C23.1336 9.31117 22.5656 9.00583 22.1212 8.55765C21.7872 8.22194 21.5315 7.81654 21.3725 7.37048C21.2135 6.92442 21.155 6.44872 21.2013 5.97743C21.2476 5.50614 21.3975 5.05091 21.6403 4.64432C21.8831 4.23773 22.2127 3.88983 22.6057 3.62553L22.6036 3.6234ZM23.6236 7.04465C23.8231 7.24332 24.0933 7.35459 24.3749 7.35399C24.5143 7.35369 24.6523 7.32594 24.7809 7.27232C24.9096 7.2187 25.0265 7.14025 25.1249 7.04146C25.2232 6.94268 25.3012 6.82548 25.3543 6.69657C25.4073 6.56766 25.4345 6.42956 25.4342 6.29015C25.4339 6.15074 25.4062 6.01275 25.3525 5.88407C25.2989 5.75538 25.2205 5.63852 25.1217 5.54015C24.9238 5.34117 24.6564 5.22688 24.3758 5.2214C24.2357 5.22112 24.0968 5.24862 23.9674 5.30231C23.8379 5.356 23.7204 5.43483 23.6216 5.53422C23.5228 5.63362 23.4447 5.75161 23.3918 5.88139C23.3388 6.01116 23.3122 6.15013 23.3133 6.29028C23.314 6.57328 23.4253 6.84479 23.6236 7.04678V7.04465ZM5.65455 25.4854H9.5008V27.621H5.65455C4.98123 27.6149 4.3378 27.3421 3.8653 26.8624C3.39099 26.3809 3.12533 25.732 3.1258 25.0562V21.2099C2.8397 21.2003 2.5585 21.1329 2.29919 21.0116C2.03988 20.8904 1.80783 20.7178 1.61705 20.5044C1.41433 20.2991 1.25524 20.0548 1.14934 19.7864C1.04343 19.518 0.992909 19.231 1.0008 18.9425V14.3058C1.00718 13.3028 1.40455 12.3444 2.1058 11.6325C2.80493 10.9292 3.75055 10.5275 4.7408 10.5212H8.6508C8.1234 11.1492 7.72612 11.8759 7.48205 12.6589H4.7408C4.30951 12.6713 3.89915 12.8476 3.5933 13.1519C3.29287 13.4608 3.1251 13.8749 3.1258 14.3058V19.0488H5.2508V25.054C5.24587 25.1119 5.25275 25.1702 5.27101 25.2254C5.28928 25.2805 5.31855 25.3314 5.35705 25.3749C5.44247 25.4409 5.54664 25.4781 5.65455 25.4812V25.4854ZM21.167 11.6347C20.8193 11.2836 20.4057 11.0046 19.9498 10.8139C19.494 10.6232 19.0049 10.5244 18.5108 10.5233H13.2408C12.2502 10.5312 11.3029 10.9307 10.6058 11.6347C9.90455 12.3465 9.50718 13.3049 9.5008 14.3079V21.0612C9.4978 21.641 9.71853 22.1997 10.1171 22.6209C10.3081 22.834 10.5402 23.0064 10.7994 23.1276C11.0587 23.2489 11.3398 23.3165 11.6258 23.3264V28.2628C11.6238 28.5997 11.6885 28.9337 11.8161 29.2455C11.9438 29.5573 12.1319 29.8408 12.3696 30.0797C12.7521 30.4367 13.2344 30.6683 13.7508 30.7427H18.0008C18.5985 30.6642 19.1461 30.3676 19.5384 29.9098C19.9306 29.452 20.1398 28.8654 20.1258 28.2628V23.3243C20.4119 23.3147 20.6931 23.2473 20.9524 23.126C21.2117 23.0048 21.4438 22.8322 21.6346 22.6188C21.8371 22.4138 21.9961 22.1699 22.102 21.9019C22.2079 21.6338 22.2585 21.3471 22.2508 21.059V14.3058C22.2523 13.3074 21.8633 12.348 21.167 11.6325V11.6347ZM20.1258 21.1653H18.0008V28.2628C17.9987 28.3748 17.953 28.4816 17.8733 28.5603C17.837 28.6032 17.7913 28.6371 17.7396 28.6592C17.688 28.6813 17.6319 28.6911 17.5758 28.6878H14.1546C14.0435 28.6826 13.9384 28.6362 13.8598 28.5576C13.7812 28.479 13.7347 28.3738 13.7296 28.2628V21.1653H11.6258V14.3058C11.6258 13.8744 11.7937 13.46 12.0933 13.1519C12.3992 12.8476 12.8095 12.6713 13.2408 12.6589H18.5108C18.8327 12.6646 19.146 12.7641 19.4121 12.9453C19.6782 13.1265 19.8857 13.3815 20.0089 13.6789C20.0898 13.8778 20.1296 14.0911 20.1258 14.3058V21.1653ZM26.0971 27.6189H22.2508V25.4833H26.0758C26.1837 25.4802 26.2879 25.443 26.3733 25.377C26.4161 25.3352 26.4496 25.2848 26.4715 25.2291C26.4935 25.1735 26.5035 25.1138 26.5008 25.054V19.0488H28.6258V14.3058C28.6265 13.8749 28.4587 13.4608 28.1583 13.1519C27.8524 12.8476 27.4421 12.6713 27.0108 12.6589H24.2696C24.0256 11.8759 23.6283 11.1492 23.1008 10.5212H27.0108C28.0012 10.5302 28.9481 10.9296 29.6458 11.6325C30.347 12.3444 30.7444 13.3028 30.7508 14.3058V18.9425C30.7508 19.5227 30.5319 20.0794 30.1367 20.5002C29.7414 20.923 29.2017 21.1759 28.6258 21.2078V25.054C28.6258 25.7319 28.3602 26.38 27.8863 26.8603C27.4138 27.34 26.7704 27.6128 26.0971 27.6189ZM7.3758 3.08365C6.74346 3.08292 6.12531 3.27103 5.60057 3.62389C5.07583 3.97674 4.66842 4.47826 4.43055 5.06415C4.19049 5.64984 4.12817 6.29325 4.25136 6.91412C4.37456 7.535 4.67781 8.10586 5.1233 8.55553C5.56863 9.00467 6.13774 9.31087 6.75793 9.43501C7.37812 9.55915 8.02124 9.49559 8.60514 9.25245C9.18903 9.00931 9.68719 8.59764 10.036 8.07001C10.3848 7.54238 10.5684 6.92275 10.5633 6.29028C10.5633 5.44028 10.2276 4.62428 9.6283 4.0229C9.33323 3.72568 8.98233 3.4897 8.59577 3.32852C8.20921 3.16733 7.79462 3.08411 7.3758 3.08365ZM7.3758 7.35915C7.23565 7.35944 7.09684 7.33194 6.96739 7.27824C6.83793 7.22455 6.72041 7.14573 6.6216 7.04633C6.5228 6.94694 6.44468 6.82894 6.39176 6.69917C6.33885 6.5694 6.31218 6.43042 6.3133 6.29028C6.31385 6.00806 6.42577 5.73748 6.62473 5.53733C6.82368 5.33718 7.0936 5.22364 7.3758 5.2214C7.65714 5.22636 7.92548 5.34076 8.12386 5.54033C8.32223 5.73989 8.43503 6.00891 8.4383 6.29028C8.43775 6.57249 8.32583 6.84308 8.12688 7.04323C7.92792 7.24338 7.658 7.35691 7.3758 7.35915Z" fill="#FF7B47"/>
</svg>
